<svg width="204" height="20" viewBox="0 0 204 20" fill="none" xmlns="http://www.w3.org/2000/svg">
<path d="M29.4541 4.46777C32.191 4.46781 34.2649 5.08738 35.6748 6.32715C37.0915 7.56696 37.7998 9.53437 37.7998 12.2285C37.7998 14.9225 37.0914 16.8929 35.6748 18.1396C34.2649 19.3794 32.191 20 29.4541 20C26.724 20 24.6503 19.3794 23.2334 18.1396C21.8166 16.8929 21.1084 14.9226 21.1084 12.2285C21.1084 9.53421 21.8165 7.56695 23.2334 6.32715C24.6503 5.08735 26.724 4.46777 29.4541 4.46777ZM105.115 4.46777C107.852 4.46777 109.926 5.08735 111.336 6.32715C112.753 7.56695 113.461 9.53423 113.461 12.2285C113.461 14.9226 112.753 16.8929 111.336 18.1396C109.926 19.3794 107.852 20 105.115 20C102.385 20 100.311 19.3794 98.8945 18.1396C97.4779 16.8929 96.7696 14.9225 96.7695 12.2285C96.7695 9.53436 97.4778 7.56696 98.8945 6.32715C100.311 5.08738 102.385 4.4678 105.115 4.46777ZM89.4189 4.69629C90.9878 4.69629 92.3736 5.10468 93.5762 5.92188C94.7856 6.7391 95.3905 7.85764 95.3906 9.27734C95.3906 9.68593 95.2701 9.98104 95.0283 10.1611C94.7865 10.3342 94.5512 10.4208 94.3232 10.4209H93.0889C92.4532 10.4208 91.9589 10.0391 91.6064 9.27734C91.095 8.18337 90.2451 7.63586 89.0566 7.63574H87.2109C85.6973 7.63574 84.6709 7.96221 84.1318 8.61328C83.5929 9.2644 83.3232 10.4695 83.3232 12.2285C83.3233 13.9877 83.5928 15.1965 84.1318 15.8545C84.671 16.5054 85.6975 16.8311 87.2109 16.8311H89.2744C90.463 16.8309 91.31 16.2837 91.8145 15.1895C92.1669 14.4208 92.664 14.0362 93.3066 14.0361H94.541C94.8656 14.0362 95.1211 14.1573 95.3076 14.3994C95.5011 14.6418 95.5977 14.9055 95.5977 15.1895C95.5976 16.6093 94.9965 17.7277 93.7939 18.5449C92.5913 19.3553 91.2056 19.7607 89.6367 19.7607H87.1074C84.5434 19.7607 82.6186 19.1476 81.333 17.9219C80.0544 16.6959 79.415 14.801 79.415 12.2383C79.4151 9.66885 80.0544 7.7708 81.333 6.54492C82.6186 5.31233 84.5435 4.69629 87.1074 4.69629H89.4189ZM5.18359 4.7793C5.45315 4.7793 5.70927 4.87638 5.95117 5.07031C6.1928 5.26411 6.35554 5.49577 6.43848 5.76562L9.49609 14.6387L12.5547 5.76562C12.6376 5.49576 12.8004 5.26411 13.042 5.07031C13.2839 4.87638 13.54 4.7793 13.8096 4.7793H18.0293C18.2987 4.77938 18.5235 4.87646 18.7031 5.07031C18.8896 5.2642 18.9824 5.50327 18.9824 5.78711V18.6797C18.9824 18.9637 18.8859 19.2035 18.6924 19.3975C18.5058 19.5843 18.2772 19.6777 18.0078 19.6777H16.1426C15.8731 19.6777 15.6408 19.5844 15.4473 19.3975C15.2607 19.2035 15.168 18.9637 15.168 18.6797V8.5293L11.5078 18.7422C11.4111 18.9984 11.2418 19.2202 11 19.4072C10.7581 19.5873 10.502 19.6777 10.2324 19.6777H8.75C8.48057 19.6777 8.2252 19.5872 7.9834 19.4072C7.7484 19.2202 7.57828 18.9985 7.47461 18.7422L3.8252 8.5293V18.6797C3.8252 18.9637 3.72868 19.2035 3.53516 19.3975C3.3486 19.5843 3.11999 19.6777 2.85059 19.6777H0.985352C0.715847 19.6777 0.483543 19.5844 0.290039 19.3975C0.0965136 19.2035 0 18.9637 0 18.6797V5.78711C0 5.50313 0.0936596 5.26425 0.280273 5.07031C0.466812 4.87647 0.694458 4.77937 0.963867 4.7793H5.18359ZM48.8096 4.7793C52.991 4.7793 55.0819 6.71147 55.082 10.5762C55.082 14.4341 52.9911 16.3633 48.8096 16.3633H43.8438V18.7012C43.8437 18.9712 43.7472 19.2036 43.5537 19.3975C43.3671 19.5844 43.1386 19.6777 42.8691 19.6777H40.9199C40.6506 19.6777 40.419 19.5843 40.2256 19.3975C40.0321 19.2036 39.9356 18.9712 39.9355 18.7012V5.76562C39.9357 5.49588 40.0286 5.26406 40.2148 5.07031C40.4014 4.8764 40.6299 4.77932 40.8994 4.7793H48.8096ZM69.9385 4.7793C70.208 4.7793 70.4364 4.87638 70.623 5.07031C70.8163 5.26409 70.913 5.4958 70.9131 5.76562V6.74316C70.913 7.013 70.8163 7.24469 70.623 7.43848C70.4364 7.62549 70.208 7.71973 69.9385 7.71973H60.9082V10.7422H68.6846C68.9538 10.7423 69.1817 10.8396 69.3682 11.0332C69.5616 11.2201 69.6591 11.4488 69.6592 11.7188V12.6963C69.6591 12.9662 69.5616 13.1978 69.3682 13.3916C69.1816 13.5785 68.954 13.6728 68.6846 13.6729H60.9082V16.7373H69.918C70.1805 16.7373 70.4052 16.8307 70.5918 17.0176C70.7783 17.2045 70.872 17.4332 70.8721 17.7031V18.7012C70.872 18.9712 70.7745 19.2036 70.5811 19.3975C70.3876 19.5842 70.1561 19.6777 69.8867 19.6777H57.9854C57.7158 19.6777 57.4836 19.5845 57.29 19.3975C57.0965 19.2035 57 18.9637 57 18.6797V5.74512C57.0001 5.47517 57.0967 5.2465 57.29 5.05957C57.4836 4.87256 57.7158 4.7793 57.9854 4.7793H69.9385ZM128.256 4.7793C128.525 4.77938 128.753 4.87646 128.939 5.07031C129.133 5.26413 129.23 5.49571 129.23 5.76562V6.74316C129.23 7.01301 129.137 7.24469 128.95 7.43848C128.771 7.62546 128.546 7.7197 128.276 7.71973H119.506V10.2334H124.627C126.306 10.2334 127.668 10.6322 128.712 11.4287C129.755 12.2183 130.277 13.3958 130.277 14.9609C130.277 16.5192 129.755 17.6967 128.712 18.4932C127.668 19.2828 126.306 19.6777 124.627 19.6777H116.53C116.268 19.6777 116.046 19.5873 115.866 19.4072C115.687 19.2203 115.597 18.9917 115.597 18.7217V5.76562C115.597 5.48187 115.69 5.24647 115.877 5.05957C116.064 4.87263 116.299 4.7793 116.582 4.7793H128.256ZM135.326 4.7793C135.596 4.77931 135.824 4.87639 136.011 5.07031C136.204 5.26406 136.301 5.49587 136.301 5.76562V9.84961H140.572C142.196 9.84965 143.544 10.2818 144.615 11.1475C145.687 12.0132 146.223 13.2191 146.223 14.7637C146.223 16.3081 145.686 17.5132 144.615 18.3789C143.544 19.2446 142.196 19.6777 140.572 19.6777H133.325C133.076 19.6777 132.858 19.5807 132.672 19.3867C132.485 19.1859 132.393 18.9498 132.393 18.6797V5.76562C132.393 5.48189 132.485 5.24646 132.672 5.05957C132.858 4.87258 133.094 4.77931 133.377 4.7793H135.326ZM151.25 4.7793C151.533 4.7793 151.768 4.87641 151.955 5.07031C152.148 5.26413 152.246 5.49571 152.246 5.76562V18.7012C152.246 18.9712 152.146 19.2036 151.945 19.3975C151.752 19.5844 151.519 19.6777 151.25 19.6777H149.28C149.011 19.6776 148.779 19.5872 148.586 19.4072C148.393 19.2202 148.296 18.9917 148.296 18.7217V5.76562C148.296 5.4958 148.393 5.26409 148.586 5.07031C148.779 4.87647 149.011 4.77939 149.28 4.7793H151.25ZM168.087 4.7793C168.37 4.7793 168.605 4.87265 168.792 5.05957C168.978 5.24647 169.072 5.48187 169.072 5.76562V6.74316C169.072 7.02694 168.979 7.26231 168.792 7.44922C168.605 7.62923 168.37 7.71973 168.087 7.71973H163.463V18.7217C163.463 18.9918 163.366 19.2202 163.173 19.4072C162.986 19.5872 162.759 19.6776 162.489 19.6777H160.529C160.26 19.6777 160.028 19.5873 159.835 19.4072C159.648 19.2202 159.555 18.9918 159.555 18.7217V7.71973H154.931C154.647 7.71967 154.412 7.62924 154.226 7.44922C154.039 7.26234 153.946 7.02685 153.946 6.74316V5.76562C153.946 5.48194 154.039 5.24645 154.226 5.05957C154.412 4.87262 154.647 4.77936 154.931 4.7793H168.087ZM173.582 4.7793C173.852 4.77932 174.08 4.87258 174.267 5.05957C174.46 5.2465 174.557 5.47517 174.557 5.74512V16.1455L180.455 5.76562C180.614 5.49568 180.832 5.26416 181.108 5.07031C181.385 4.87638 181.641 4.7793 181.876 4.7793H184.935C185.204 4.77937 185.432 4.87647 185.618 5.07031C185.805 5.26413 185.898 5.49571 185.898 5.76562V18.7012C185.898 18.9712 185.802 19.2036 185.608 19.3975C185.415 19.5844 185.183 19.6777 184.913 19.6777H183.089C182.819 19.6777 182.588 19.5842 182.395 19.3975C182.208 19.2036 182.114 18.9712 182.114 18.7012V9.05957L176.702 18.7012C176.543 18.9711 176.318 19.2036 176.028 19.3975C175.738 19.5843 175.458 19.6777 175.188 19.6777H171.757C171.488 19.6776 171.256 19.5843 171.062 19.3975C170.869 19.2036 170.773 18.9712 170.772 18.7012V5.76562C170.773 5.48187 170.866 5.24647 171.053 5.05957C171.239 4.87283 171.474 4.77939 171.757 4.7793H173.582ZM191.684 4.7793C191.953 4.77932 192.182 4.87259 192.368 5.05957C192.562 5.2465 192.658 5.47517 192.658 5.74512V16.1455L198.557 5.76562C198.716 5.49568 198.934 5.26416 199.21 5.07031C199.486 4.87638 199.743 4.7793 199.978 4.7793H203.036C203.306 4.77937 203.533 4.87647 203.72 5.07031C203.906 5.26413 204 5.49571 204 5.76562V18.7012C204 18.9712 203.903 19.2036 203.71 19.3975C203.516 19.5844 203.284 19.6777 203.015 19.6777H201.19C200.921 19.6777 200.69 19.5842 200.496 19.3975C200.31 19.2036 200.216 18.9712 200.216 18.7012V9.05957L194.804 18.7012C194.645 18.9711 194.42 19.2036 194.13 19.3975C193.84 19.5843 193.559 19.6777 193.29 19.6777H189.858C189.589 19.6776 189.357 19.5843 189.164 19.3975C188.971 19.2036 188.874 18.9712 188.874 18.7012V5.76562C188.874 5.48187 188.968 5.24647 189.154 5.05957C189.341 4.87283 189.575 4.77939 189.858 4.7793H191.684ZM29.4541 7.27246C27.899 7.27246 26.7685 7.68838 26.0635 8.51953C25.3656 9.35061 25.0167 10.5902 25.0166 12.2383C25.0166 13.8795 25.3656 15.1161 26.0635 15.9473C26.7685 16.7715 27.899 17.1836 29.4541 17.1836C31.016 17.1836 32.1457 16.7715 32.8438 15.9473C33.5418 15.1161 33.8916 13.8797 33.8916 12.2383C33.8915 10.59 33.5418 9.35061 32.8438 8.51953C32.1457 7.68842 31.016 7.2725 29.4541 7.27246ZM105.115 7.27246C103.56 7.27249 102.431 7.68843 101.726 8.51953C101.028 9.35061 100.678 10.59 100.678 12.2383C100.678 13.8797 101.028 15.1161 101.726 15.9473C102.431 16.7715 103.56 17.1836 105.115 17.1836C106.677 17.1836 107.808 16.7715 108.506 15.9473C109.204 15.1161 109.553 13.8795 109.553 12.2383C109.553 10.5902 109.204 9.35061 108.506 8.51953C107.808 7.68838 106.677 7.27246 105.115 7.27246ZM119.506 16.7373H124.627C125.788 16.7373 126.369 16.1415 126.369 14.9502C126.369 13.759 125.788 13.1631 124.627 13.1631H119.506V16.7373ZM136.301 16.7373H140.572C141.733 16.7372 142.313 16.0793 142.313 14.7637C142.313 13.4408 141.733 12.7794 140.572 12.7793H136.301V16.7373ZM43.8438 13.4229H47.6279C48.7891 13.4229 49.6702 13.2287 50.2715 12.8408C50.8727 12.446 51.1738 11.6913 51.1738 10.5762C51.1738 9.45424 50.8728 8.69937 50.2715 8.31152C49.6702 7.91679 48.789 7.71973 47.6279 7.71973H43.8438V13.4229ZM194.379 0C194.718 0 194.956 0.177034 195.095 0.530273C195.295 1.02169 195.741 1.26755 196.432 1.26758C197.13 1.26758 197.576 1.02188 197.77 0.530273C197.915 0.177034 198.156 0 198.495 0H199.345C199.725 0 199.915 0.177034 199.915 0.530273C199.915 1.47879 199.597 2.23019 198.962 2.78418C198.326 3.33828 197.482 3.61523 196.432 3.61523C195.388 3.61521 194.548 3.33826 193.912 2.78418C193.277 2.23018 192.959 1.47882 192.959 0.530273C192.959 0.177034 193.149 0 193.529 0H194.379Z" fill="white"/>
</svg>
